<svg width="24" height="24" viewBox="0 0 24 24" fill="none" xmlns="http://www.w3.org/2000/svg">
<g clip-path="url(#clip0_44_9)">
<path d="M4.20001 2.09998L1.20001 6.29998V21C1.20001 21.5569 1.41073 22.0911 1.7858 22.4849C2.16087 22.8787 2.66958 23.1 3.20001 23.1H17.2C17.7304 23.1 18.2392 22.8787 18.6142 22.4849C18.9893 22.0911 19.2 21.5569 19.2 21V6.29998L16.2 2.09998H4.20001Z" stroke="#FAFAFA" stroke-width="2" stroke-linecap="round" stroke-linejoin="round"/>
<path d="M1.20001 6.29999H19.2" stroke="#FAFAFA" stroke-width="2" stroke-linecap="round" stroke-linejoin="round"/>
<path d="M14.0001 10.5C14.0001 11.6139 13.5786 12.6822 12.8285 13.4698C12.0783 14.2575 11.0609 14.7 10.0001 14.7C8.9392 14.7 7.92178 14.2575 7.17163 13.4698C6.42149 12.6822 6.00006 11.6139 6.00006 10.5" stroke="#FAFAFA" stroke-width="2" stroke-linecap="round" stroke-linejoin="round"/>
</g>
<defs>
<clipPath id="clip0_44_9">
<rect width="24" height="24" fill="white"/>
</clipPath>
</defs>
</svg>
